<svg width="24" height="24" viewBox="0 0 24 24" fill="none" xmlns="http://www.w3.org/2000/svg">
<path d="M12.3364 21.7583L12.6521 21.4426C12.8613 21.2334 12.8613 20.8942 12.6521 20.685L4.6836 12.7165H21.4643C21.7601 12.7165 22 12.4766 22 12.1808V11.7344C22 11.4385 21.7601 11.1986 21.4643 11.1986H4.6836L12.6521 3.23016C12.8613 3.02096 12.8613 2.68176 12.6521 2.47252L12.3364 2.1569C12.1272 1.9477 11.788 1.9477 11.5788 2.1569L2.1569 11.5788C1.9477 11.788 1.9477 12.1272 2.1569 12.3364L11.5788 21.7583C11.788 21.9675 12.1272 21.9675 12.3364 21.7583Z" fill="#808C73"/>
</svg>
