<svg width="24" height="24" viewBox="0 0 24 24" fill="none" xmlns="http://www.w3.org/2000/svg">
<path d="M12.1053 9.89474C13.2697 9.89474 14.2105 10.8355 14.2105 12C14.2105 13.1645 13.2697 14.1053 12.1053 14.1053C10.9408 14.1053 10 13.1645 10 12C10 10.8355 10.9408 9.89474 12.1053 9.89474ZM10 4.10526C10 5.26974 10.9408 6.21053 12.1053 6.21053C13.2697 6.21053 14.2105 5.26974 14.2105 4.10526C14.2105 2.94079 13.2697 2 12.1053 2C10.9408 2 10 2.94079 10 4.10526ZM10 19.8947C10 21.0592 10.9408 22 12.1053 22C13.2697 22 14.2105 21.0592 14.2105 19.8947C14.2105 18.7303 13.2697 17.7895 12.1053 17.7895C10.9408 17.7895 10 18.7303 10 19.8947Z" fill="#808C73"/>
</svg>
