<svg width="24" height="24" viewBox="0 0 24 24" fill="none" xmlns="http://www.w3.org/2000/svg">
<path d="M14.1216 12.0003L20.5318 5.59011L21.8537 4.2682C22.0487 4.07319 22.0487 3.75631 21.8537 3.5613L20.4393 2.14688C20.2443 1.95187 19.9274 1.95187 19.7324 2.14688L12.0003 9.879L4.2682 2.14625C4.07319 1.95125 3.7563 1.95125 3.5613 2.14625L2.14625 3.56067C1.95125 3.75568 1.95125 4.07256 2.14625 4.26757L9.879 12.0003L2.14625 19.7324C1.95125 19.9274 1.95125 20.2443 2.14625 20.4393L3.56067 21.8537C3.75568 22.0487 4.07256 22.0487 4.26757 21.8537L12.0003 14.1216L18.4105 20.5318L19.7324 21.8537C19.9274 22.0487 20.2443 22.0487 20.4393 21.8537L21.8537 20.4393C22.0487 20.2443 22.0487 19.9274 21.8537 19.7324L14.1216 12.0003Z" fill="#808C73"/>
</svg>
